<svg width="192" height="192" viewBox="0 0 192 192" fill="none" xmlns="http://www.w3.org/2000/svg">
<rect width="192" height="192" fill="white"/>
<rect x="31" y="96" width="44" height="77" fill="#438CFA"/>
<rect x="75" y="73" width="42" height="100" fill="#1371FF"/>
<rect x="117" y="123" width="44" height="50" fill="#0D64E8"/>
<path d="M95.9755 22.8455C95.9086 22.6395 95.7166 22.5 95.5 22.5C95.2834 22.5 95.0914 22.6395 95.0245 22.8455L90.3097 37.3561H75.0523C74.8357 37.3561 74.6437 37.4956 74.5768 37.7016C74.5098 37.9076 74.5831 38.1333 74.7584 38.2606L87.1019 47.2287L82.3871 61.7394C82.3202 61.9454 82.3935 62.1711 82.5687 62.2984C82.744 62.4257 82.9813 62.4257 83.1565 62.2984L95.5 53.3303L107.843 62.2984C108.019 62.4257 108.256 62.4257 108.431 62.2984C108.607 62.1711 108.68 61.9454 108.613 61.7394L103.898 47.2287L116.242 38.2606C116.417 38.1333 116.49 37.9076 116.423 37.7016C116.356 37.4956 116.164 37.3561 115.948 37.3561H100.69L95.9755 22.8455Z" fill="#FFC400" stroke="#FFC400" stroke-linejoin="round"/>
</svg>
