<svg width="201" height="32" viewBox="0 0 201 32" fill="none" xmlns="http://www.w3.org/2000/svg">
<path d="M9.32422 7.60156H5.51562L4.51953 11.3906H0.828125V2.79688H24.0312V11.3906H20.3203L19.3242 7.60156H15.5156V26.3906L19.3242 27.6016V31H5.51562V27.6016L9.32422 26.3906V7.60156ZM32.0586 21.5273C32.1628 23.1289 32.6445 24.3789 33.5039 25.2773C34.3763 26.1628 35.5091 26.6055 36.9023 26.6055C37.8919 26.6055 38.8815 26.4688 39.8711 26.1953C40.8737 25.9089 41.7005 25.6224 42.3516 25.3359C43.0156 25.0365 43.4388 24.8281 43.6211 24.7109L45.3398 28.0312C45.3398 28.0833 44.8711 28.4154 43.9336 29.0273C43.0091 29.6263 41.8698 30.1732 40.5156 30.668C39.1745 31.1497 37.7422 31.3906 36.2188 31.3906C32.8333 31.3906 30.2552 30.4531 28.4844 28.5781C26.7135 26.7031 25.8281 24.0469 25.8281 20.6094C25.8281 18.2917 26.2513 16.2604 27.0977 14.5156C27.957 12.7578 29.1875 11.4036 30.7891 10.4531C32.3906 9.48958 34.2917 9.00781 36.4922 9.00781C39.4219 9.00781 41.668 9.84766 43.2305 11.5273C44.793 13.207 45.5742 15.4987 45.5742 18.4023C45.5742 19.0404 45.5417 19.6589 45.4766 20.2578C45.4115 20.8568 45.3659 21.2344 45.3398 21.3906L32.0586 21.5273ZM36.1016 13.793C35.0078 13.793 34.1159 14.1641 33.4258 14.9062C32.7357 15.6354 32.306 16.599 32.1367 17.7969H39.3828C39.3828 16.599 39.1159 15.6354 38.582 14.9062C38.0482 14.1641 37.2214 13.793 36.1016 13.793ZM67.7812 27.9922C66.8828 28.7995 65.7044 29.5677 64.2461 30.2969C62.8008 31.026 61.1146 31.3906 59.1875 31.3906C55.9062 31.3906 53.3542 30.4336 51.5312 28.5195C49.7083 26.6055 48.7969 23.9362 48.7969 20.5117C48.7969 16.944 49.7604 14.138 51.6875 12.0938C53.6276 10.0365 56.3294 9.00781 59.793 9.00781C60.8086 9.00781 61.8307 9.11198 62.8594 9.32031C63.901 9.52865 64.7669 9.74349 65.457 9.96484C66.1602 10.1732 66.6029 10.3164 66.7852 10.3945L66.5898 16.957H62.9961L62.4297 14.125C62.2995 14.099 61.974 14.0404 61.4531 13.9492C60.9323 13.8451 60.3398 13.793 59.6758 13.793C58.2044 13.793 57.0521 14.2943 56.2188 15.2969C55.3984 16.2995 54.9883 17.7708 54.9883 19.7109C54.9883 21.9245 55.4049 23.6302 56.2383 24.8281C57.0846 26.013 58.3346 26.6055 59.9883 26.6055C61.0299 26.6055 61.9414 26.4492 62.7227 26.1367C63.5169 25.8112 64.181 25.4792 64.7148 25.1406C65.2487 24.8021 65.6068 24.5807 65.7891 24.4766L67.7812 27.9922ZM78.4062 11.7227C79.2266 11.0326 80.2227 10.4076 81.3945 9.84766C82.5794 9.28776 83.8229 9.00781 85.125 9.00781C87.1562 9.00781 88.7122 9.63932 89.793 10.9023C90.8737 12.1654 91.4141 13.9297 91.4141 16.1953V26.8008L94.207 27.7969V31H83.3281V27.7969L85.3984 26.8398V17.1523C85.3984 15.0169 84.5195 13.9557 82.7617 13.9688C82.0977 13.9688 81.4466 14.1315 80.8086 14.457C80.1706 14.7695 79.6367 15.0951 79.207 15.4336C78.7773 15.7591 78.5104 15.974 78.4062 16.0781V26.8008L80.5352 27.7969V31H69.207V27.7969L72.4102 26.8008V4.32031L69.207 3.51953V0.316406L78.4062 0.00390625V11.7227ZM105.359 12.1523C105.359 12.1003 105.672 11.7943 106.297 11.2344C106.922 10.6745 107.645 10.1667 108.465 9.71094C109.298 9.24219 110.118 9.00781 110.926 9.00781C111.564 9.00781 112.163 9.0599 112.723 9.16406C113.283 9.26823 113.719 9.37891 114.031 9.49609C114.357 9.61328 114.559 9.6849 114.637 9.71094L114.324 17.4062H110.73L110.125 14.0078C109.435 14.0078 108.764 14.1771 108.113 14.5156C107.475 14.8411 106.928 15.2057 106.473 15.6094C106.03 16 105.809 16.2083 105.809 16.2344V26.8008L109.812 27.7969V31H96.6094V27.7969L99.8125 26.8008V13.793L96.6094 12.7969V9.59375L105.008 9.39844L105.359 12.1523ZM129.168 28.4023C129.168 28.4544 128.823 28.7474 128.133 29.2812C127.443 29.8151 126.616 30.3034 125.652 30.7461C124.689 31.1758 123.699 31.3906 122.684 31.3906C120.73 31.3906 119.201 30.8503 118.094 29.7695C117 28.6758 116.453 27.1263 116.453 25.1211C116.453 22.8294 117.273 21.1562 118.914 20.1016C120.555 19.0469 122.944 18.5195 126.082 18.5195H128.895V16.3125C128.895 14.3594 127.866 13.3893 125.809 13.4023C125.197 13.4023 124.63 13.4479 124.109 13.5391C123.589 13.6302 123.172 13.7279 122.859 13.832C122.56 13.9232 122.371 13.9818 122.293 14.0078L121.688 16.5273H118.094L117.82 10.6094C118.055 10.5312 118.628 10.362 119.539 10.1016C120.464 9.84115 121.564 9.59375 122.84 9.35938C124.129 9.125 125.346 9.00781 126.492 9.00781C128.549 9.00781 130.184 9.26823 131.395 9.78906C132.605 10.2969 133.491 11.1302 134.051 12.2891C134.611 13.4349 134.891 14.9779 134.891 16.918V26.8008L137.898 27.5234V30.7266L129.891 31L129.168 28.4023ZM122.254 24.5156C122.254 25.2969 122.456 25.8958 122.859 26.3125C123.276 26.7161 123.862 26.918 124.617 26.918C125.255 26.918 125.887 26.7487 126.512 26.4102C127.137 26.0586 127.664 25.7005 128.094 25.3359C128.523 24.9583 128.79 24.7109 128.895 24.5938V21.918H126.609C125.06 21.918 123.947 22.1263 123.27 22.543C122.592 22.9596 122.254 23.6172 122.254 24.5156ZM149.031 12.1523C149.031 12.1003 149.448 11.8008 150.281 11.2539C151.128 10.707 152.091 10.2122 153.172 9.76953C154.253 9.3138 155.327 9.08594 156.395 9.08594C158.309 9.08594 159.799 9.71745 160.867 10.9805C161.935 12.2435 162.469 13.9818 162.469 16.1953V26.8008L165.281 27.7969V31H154.266V27.7969L156.473 26.8008V17.2891C156.473 16.3516 156.225 15.5833 155.73 14.9844C155.236 14.3854 154.578 14.0859 153.758 14.0859C153.016 14.0859 152.326 14.2552 151.688 14.5938C151.062 14.9193 150.535 15.2839 150.105 15.6875C149.689 16.0781 149.48 16.2995 149.48 16.3516V26.8008L151.668 27.7969V31H140.281V27.7969L143.484 26.8008V13.793L140.281 12.7969V9.59375L148.758 9.39844L149.031 12.1523ZM178.895 17.4453L181.609 13.3633L179.852 12.7969V9.59375L190.184 9.39844V12.7969L187.371 13.3242L183.66 18.5586L188.133 26.8398L191.18 27.7969V31H183.777L178.816 21.2344H176.258V26.8008L178.465 27.7969V31H167.059V27.7969L170.262 26.8008V4.32031L167.059 3.51953V0.316406L176.258 0.00390625V17.4453H178.895ZM194.168 27.875C194.168 26.7812 194.507 25.9089 195.184 25.2578C195.874 24.6068 196.681 24.2812 197.605 24.2812C198.699 24.2812 199.533 24.5938 200.105 25.2188C200.678 25.8438 200.965 26.7292 200.965 27.875C200.965 28.9948 200.633 29.8867 199.969 30.5508C199.305 31.2018 198.491 31.5273 197.527 31.5273C196.434 31.5273 195.6 31.2148 195.027 30.5898C194.454 29.9518 194.168 29.0469 194.168 27.875Z" fill="#1371FF"/>
</svg>
