<svg width="16" height="19" viewBox="0 0 16 19" fill="none" xmlns="http://www.w3.org/2000/svg">
<path d="M3.83036 3.81636C3.77913 3.86369 3.75 3.93026 3.75 4C3.75 4.06974 3.77913 4.13631 3.83036 4.18364L7.58036 7.64774C7.65332 7.71513 7.75924 7.73295 7.85023 7.69313C7.94121 7.65332 8 7.56342 8 7.4641L8 0.535898C8 0.436582 7.94121 0.346684 7.85023 0.306868C7.75924 0.267052 7.65332 0.284869 7.58036 0.35226L3.83036 3.81636Z" fill="white" stroke="white" stroke-width="0.5" stroke-linejoin="round"/>
<path d="M1 11C1 14.866 4.13401 18 8 18C11.866 18 15 14.866 15 11C15 7.13401 11.866 4 8 4" stroke="white" stroke-width="2" stroke-linecap="round" stroke-linejoin="round"/>
</svg>
